<svg id="レイヤー_1" data-name="レイヤー 1" xmlns="http://www.w3.org/2000/svg" viewBox="0 0 74.33 73.71"><defs><style>.cls-1{fill:#fff;fill-rule:evenodd;}</style></defs><title>and-logo-sアートボード 1</title><path class="cls-1" d="M64.86,0,62.37.28a28,28,0,0,0-5,1.49A97,97,0,0,0,36.64,14.17c-2,1.48-3.69,3.28-5.59,4.81a50.91,50.91,0,0,0-7.53,7.36L17.88,32.2a137.43,137.43,0,0,0-9.79,13A56.52,56.52,0,0,0,.45,62c-.87,3.53-.58,7.36,1.66,9.13,5.67,4.47,16.67,2.21,22.69-.33A124,124,0,0,0,51.42,55.67c3-2.26,5.64-4.92,8.52-7.25a55.11,55.11,0,0,0,8.24-8.36,55.68,55.68,0,0,0,4.09-5.87,19.07,19.07,0,0,0,1.66-4,9,9,0,0,0-.11-5.59c-2.65-6.1-14.39-3-19.48-1.22l-3.93,1.44v.06c2.32-.34,4.65-.94,7.14-1.38,5.89-1,12.06,1.54,10.18,7.75a15.38,15.38,0,0,1-1.55,3.38,45,45,0,0,1-3.32,4.76c-3.42,4.36-8.12,7.73-12.67,11-6,4.23-11.8,8.41-19.15,11.34a63.4,63.4,0,0,1-12.51,3.1c-2.65.47-5.61-.25-6.58-1.72s-1.14-4.25-.66-6.36A36.06,36.06,0,0,1,15.84,46a81.56,81.56,0,0,1,33.7-31.43,33.86,33.86,0,0,1,10-3c1.72-.3,4.33-.15,5.26.61,2.24,1.84.67,5.65.06,7.91,1.52,0,3.05,0,4.59,0,1.7-3.63,6.44-12.48,2.88-17.54C70.89.57,68.28,0,64.86,0Z"/><path class="cls-1" d="M63.53,25.29c-1.87,2.06-3.1,5-4.65,7.3-2.56,3.9-5.49,7.43-8.36,11A67,67,0,0,1,39.85,53.9l-5,3.71c4.83-2.2,8.16-5.33,12-8.41A84.74,84.74,0,0,0,59.77,35.75c1.62-2,3.23-4,4.7-6.2.48-.72,1.52-1.86,1.44-2.88A3.34,3.34,0,0,0,63.53,25.29Z"/><path class="cls-1" d="M35,30.82c-2.22.87-3.28.85-4.15,3.15C29.59,37.4,32.4,41.26,36,40.62,42,39.54,41.63,30.73,35,30.82Z"/></svg>