<svg id="レイヤー_1" data-name="レイヤー 1" xmlns="http://www.w3.org/2000/svg" viewBox="0 0 1193.29 217.93"><defs><style>.cls-1,.cls-2{fill-rule:evenodd;}.cls-2,.cls-3{fill:#fff;}</style></defs><title>and4</title><path class="cls-1" d="M510.68,208.57H543.4L505.48,169.3h9.25c16.8,0,26.18-13.75,26.18-30.55v-6.55c0-16.8-9.38-30.55-26.18-30.55H436.19V208.57h26.18V154Zm-48.3-85.09h32.81c12.74,0,17.37,2.06,17.37,7.72v9.43c0,5.14-5.79,6.86-19.3,6.86H462.37Z"/><path class="cls-1" d="M399.1,208.57c14.4,0,26.18-16.15,26.18-30.55V132.21c0-14.4-11.78-30.55-26.18-30.55H318.37v69.82l-48.3-69.82H240.91V207.92L194.79,101.66H169.21L122,208.57h25.1l33.81-77.9,33.81,77.9H266V138.75l48.3,69.82H399.1Zm-54.55-21.82V125.66h37.09c14.4,0,19.64,5.24,19.64,19.64v24c0,13.09-6.55,17.45-21.82,17.45Z"/><polygon class="cls-1" points="906.74 125.66 939.84 125.66 939.84 208.57 966.38 208.57 966.38 125.66 1000.93 125.66 1000.93 101.66 906.74 101.66 906.74 125.66"/><path class="cls-1" d="M634.74,208.57c14.4,0,26.18-16.15,26.18-30.55V132.21c0-14.4-11.78-30.55-26.18-30.55H573.65c-14.4,0-26.18,16.14-26.18,30.55V178c0,14.4,11.78,30.55,26.18,30.55h61.09Zm-39.27-22.91c-14.4,0-21.82-4.36-21.82-17.45V146.39c0-16.8,5-21.82,21.82-21.82H615.1c14.4,0,19.64,5.24,19.64,19.64v24c0,13.09-6.55,17.45-21.82,17.45Z"/><polygon class="cls-1" points="761.59 101.66 736.11 147.76 729.8 159.15 723.5 147.76 698.01 101.66 668.58 101.66 665.48 197.66 665.28 197.3 665.28 208.57 689.28 208.57 691.47 140.93 728.86 208.57 730.74 208.57 768.13 140.93 770.32 208.57 794.12 208.57 790.67 101.66 761.59 101.66"/><path class="cls-1" d="M1051.47,186.75c-14.4,0-21.82-4.36-21.82-17.45v-2.18h65.46v-24h-65.3c.9-13.3,6.43-17.46,21.66-17.46h43.64v-24h-63.27c-14.4,0-26.18,16.14-26.18,30.55V178c0,14.4,11.78,30.55,26.18,30.55h63.27V186.75Z"/><path class="cls-1" d="M1150.38,186.75c-14.4,0-21.82-4.36-21.82-17.45V147.48c0-16.8,5-21.82,21.82-21.82h42.91v-24h-62.55c-14.4,0-26.18,16.14-26.18,30.55V178c0,14.4,11.78,30.55,26.18,30.55h62.55V186.75Z"/><path class="cls-1" d="M895.83,186.75H852.92c-14.4,0-21.82-4.36-21.82-17.45v-2.18h64.73v-24H831.26c.9-13.3,6.43-17.46,21.67-17.46h42.91v-24H833.29c-14.4,0-26.18,16.14-26.18,30.55V178c0,14.4,11.78,30.55,26.18,30.55h62.55Z"/><path class="cls-1" d="M192,2l-7.29.81a81.89,81.89,0,0,0-14.59,4.38c-22.71,9.62-42.39,22.39-60.79,36.31C103.6,47.85,98.54,53.12,93,57.6a149.13,149.13,0,0,0-22,21.56L54.39,96.35c-10,12.37-20,24.29-28.69,38.09C16.53,149,8,164.61,3.33,183.72.79,194,1.62,205.28,8.2,210.46c16.61,13.1,48.82,6.47,66.46-1a363.28,363.28,0,0,0,78-44.42c8.78-6.61,16.51-14.41,25-21.24a161.44,161.44,0,0,0,24.15-24.48,163.1,163.1,0,0,0,12-17.18,55.86,55.86,0,0,0,4.86-11.83c1.53-5.08,1.62-11.9-.32-16.37-7.76-17.87-42.16-8.78-57.06-3.57l-11.51,4.21v.16c6.78-1,13.62-2.76,20.91-4.05,17.26-3.05,35.32,4.51,29.83,22.69a45,45,0,0,1-4.54,9.89,131.86,131.86,0,0,1-9.73,13.94c-10,12.76-23.79,22.64-37.12,32.1C131.57,161.75,114.48,174,93,182.58c-11.13,4.44-23.27,6.72-36.63,9.08-7.77,1.37-16.44-.74-19.29-5-2.71-4.08-3.33-12.46-1.95-18.64,2.69-12,7.79-22,13.29-31.29Q84,76.9,147.12,44.64c8.69-4.44,17.73-6.76,29.18-8.75,5-.88,12.69-.44,15.4,1.78,6.55,5.38,2,16.56.16,23.18,4.46-.11,8.95-.06,13.45,0,5-10.63,18.88-36.55,8.43-51.39C209.67,3.68,202,1.92,192,2Z"/><path class="cls-1" d="M188.13,76.08c-5.49,6-9.08,14.5-13.62,21.4C167,108.9,158.42,119.25,150,129.74c-8.55,10.7-20.45,21.72-31.29,30.15L104,170.75c14.16-6.44,23.91-15.62,35.18-24.64,14.15-11.32,26.63-25.22,37.93-39.39,4.73-5.93,9.47-11.68,13.78-18.16,1.41-2.12,4.47-5.45,4.21-8.43C193.39,78.32,191.5,76.19,188.13,76.08Z"/><circle cx="107.39" cy="107.37" r="15.05"/><path class="cls-2" d="M508.68,206.57H541.4L503.48,167.3h9.25c16.8,0,26.18-13.75,26.18-30.55v-6.55c0-16.8-9.38-30.55-26.18-30.55H434.19V206.57h26.18V152Zm-48.3-85.09h32.81c12.74,0,17.37,2.06,17.37,7.72v9.43c0,5.14-5.79,6.86-19.3,6.86H460.37Z"/><path class="cls-2" d="M397.1,206.57c14.4,0,26.18-16.15,26.18-30.55V130.21c0-14.4-11.78-30.55-26.18-30.55H316.37v69.82l-48.3-69.82H238.91V205.92L192.79,99.66H167.21L120,206.57h25.1l33.81-77.9,33.81,77.9H264V136.75l48.3,69.82H397.1Zm-54.55-21.82V123.66h37.09c14.4,0,19.64,5.24,19.64,19.64v24c0,13.09-6.55,17.45-21.82,17.45Z"/><polygon class="cls-2" points="904.74 123.66 937.84 123.66 937.84 206.57 964.38 206.57 964.38 123.66 998.93 123.66 998.93 99.66 904.74 99.66 904.74 123.66"/><path class="cls-2" d="M632.74,206.57c14.4,0,26.18-16.15,26.18-30.55V130.21c0-14.4-11.78-30.55-26.18-30.55H571.65c-14.4,0-26.18,16.14-26.18,30.55V176c0,14.4,11.78,30.55,26.18,30.55h61.09Zm-39.27-22.91c-14.4,0-21.82-4.36-21.82-17.45V144.39c0-16.8,5-21.82,21.82-21.82H613.1c14.4,0,19.64,5.24,19.64,19.64v24c0,13.09-6.55,17.45-21.82,17.45Z"/><polygon class="cls-2" points="759.59 99.66 734.11 145.76 727.8 157.15 721.5 145.76 696.01 99.66 666.58 99.66 663.48 195.66 663.28 195.3 663.28 206.57 687.28 206.57 689.47 138.93 726.86 206.57 728.74 206.57 766.13 138.93 768.32 206.57 792.12 206.57 788.67 99.66 759.59 99.66"/><path class="cls-2" d="M1049.47,184.75c-14.4,0-21.82-4.36-21.82-17.45v-2.18h65.46v-24h-65.3c.9-13.3,6.43-17.46,21.66-17.46h43.64v-24h-63.27c-14.4,0-26.18,16.14-26.18,30.55V176c0,14.4,11.78,30.55,26.18,30.55h63.27V184.75Z"/><path class="cls-2" d="M1148.38,184.75c-14.4,0-21.82-4.36-21.82-17.45V145.48c0-16.8,5-21.82,21.82-21.82h42.91v-24h-62.55c-14.4,0-26.18,16.14-26.18,30.55V176c0,14.4,11.78,30.55,26.18,30.55h62.55V184.75Z"/><path class="cls-2" d="M893.83,184.75H850.92c-14.4,0-21.82-4.36-21.82-17.45v-2.18h64.73v-24H829.26c.9-13.3,6.43-17.46,21.67-17.46h42.91v-24H831.29c-14.4,0-26.18,16.14-26.18,30.55V176c0,14.4,11.78,30.55,26.18,30.55h62.55Z"/><path class="cls-2" d="M190,0l-7.29.81a81.89,81.89,0,0,0-14.59,4.38c-22.71,9.62-42.39,22.39-60.79,36.31C101.6,45.85,96.54,51.12,91,55.6a149.13,149.13,0,0,0-22,21.56L52.39,94.35c-10,12.37-20,24.29-28.69,38.09C14.53,147,6,162.61,1.33,181.72-1.21,192-.38,203.28,6.2,208.46c16.61,13.1,48.82,6.47,66.46-1a363.28,363.28,0,0,0,78-44.42c8.78-6.61,16.51-14.41,25-21.24a161.44,161.44,0,0,0,24.15-24.48,163.1,163.1,0,0,0,12-17.18,55.86,55.86,0,0,0,4.86-11.83c1.53-5.08,1.62-11.9-.32-16.37-7.76-17.87-42.16-8.78-57.06-3.57l-11.51,4.21v.16c6.78-1,13.62-2.76,20.91-4.05,17.26-3.05,35.32,4.51,29.83,22.69a45,45,0,0,1-4.54,9.89,131.86,131.86,0,0,1-9.73,13.94c-10,12.76-23.79,22.64-37.12,32.1C129.57,159.75,112.48,172,91,180.58c-11.13,4.44-23.27,6.72-36.63,9.08-7.77,1.37-16.44-.74-19.29-5-2.71-4.08-3.33-12.46-1.95-18.64,2.69-12,7.79-22,13.29-31.29Q82,74.9,145.12,42.64c8.69-4.44,17.73-6.76,29.18-8.75,5-.88,12.69-.44,15.4,1.78,6.55,5.38,2,16.56.16,23.18,4.46-.11,8.95-.06,13.45,0,5-10.63,18.88-36.55,8.43-51.39C207.67,1.68,200-.08,190,0Z"/><path class="cls-2" d="M186.13,74.08c-5.49,6-9.08,14.5-13.62,21.4C165,106.9,156.42,117.25,148,127.74c-8.55,10.7-20.45,21.72-31.29,30.15L102,168.75c14.16-6.44,23.91-15.62,35.18-24.64,14.15-11.32,26.63-25.22,37.93-39.39,4.73-5.93,9.47-11.68,13.78-18.16,1.41-2.12,4.47-5.45,4.21-8.43C191.39,76.32,189.5,74.19,186.13,74.08Z"/><circle class="cls-3" cx="105.39" cy="105.37" r="15.05"/></svg>